<svg width="30" height="26" viewBox="0 0 30 26" fill="none" xmlns="http://www.w3.org/2000/svg">
<path d="M2.8023 11.6554C2.76599 10.996 2.78273 10.3342 2.85232 9.67854C2.9586 9.67854 4.83413 9.73689 4.83413 9.67854C4.83413 9.62018 4.70284 6.57836 4.94041 6.42517C5.88911 6.25993 6.84509 6.15764 7.80372 6.1188V4.29517C7.80372 4.29517 5.38429 4.41918 5.35303 4.17116C5.32177 3.92315 4.96542 0.217527 5.19673 0.129993C5.42805 0.0424582 8.9478 -0.139905 8.9478 0.188349C8.9478 0.516603 9.05408 3.52925 9.05408 3.52925C9.05408 3.52925 11.5548 3.28853 11.6611 3.52925C11.7673 3.76996 11.7111 5.9948 11.9737 6.02398C12.2362 6.05315 16.2999 6.23552 16.2999 6.02398C16.2772 5.16037 16.3211 4.29613 16.4312 3.44171C16.5625 3.3177 19.507 3.28853 19.507 3.28853C19.4603 2.31585 19.477 1.34043 19.5571 0.370712C19.6883 0.159171 23.5707 0.129993 23.5707 0.370712C23.5531 1.64151 23.4759 2.91022 23.3394 4.17116C23.2331 4.17116 20.2635 4.22952 20.2635 4.22952V5.0538C20.2635 5.0538 24.9773 5.20699 25.0336 5.47689C25.0899 5.74678 24.9023 9.51806 25.0336 9.51806C25.1649 9.51806 27.378 9.51806 27.403 9.79525C27.428 10.0724 27.403 12.3483 27.403 12.3483C27.403 12.3483 29.9037 12.4067 29.985 12.7422C30.0663 13.0778 29.8037 22.3783 29.5161 22.5315C28.5265 22.662 27.5257 22.6202 26.5465 22.4075C26.4715 22.2251 26.5465 16.2071 26.4153 16.1488C26.284 16.0904 24.8273 16.1488 24.8273 16.1488C24.8273 16.1488 24.9836 22.7139 24.7773 22.9546C24.571 23.1953 21.4201 23.137 21.4201 23.137C21.4201 23.137 21.6577 25.6609 21.5014 25.7192C21.3451 25.7776 15.1996 26.1423 15.1996 25.8724C15.1996 25.6025 15.1496 22.2251 15.3809 22.072C15.6122 21.9188 19.9134 21.9188 19.8884 21.7656C19.8634 21.6124 19.8884 20.4307 19.8134 20.4015C19.7384 20.3723 9.97309 20.562 9.97309 20.7443C9.91878 21.1773 9.91878 21.6171 9.97309 22.0501C10.0544 22.0501 14.4556 22.1741 14.4806 22.2616C14.5575 23.4757 14.5575 24.6948 14.4806 25.9089C12.5898 26.0304 10.6948 26.0304 8.80401 25.9089C8.5977 25.7557 8.51643 22.9327 8.51643 22.9327C8.51643 22.9327 5.05294 22.5096 5.02794 22.2981C5.00293 22.0865 5.02793 16.2217 4.92165 16.1269C4.57824 16.0336 4.22103 16.0336 3.87761 16.1269C3.87761 16.2217 3.98389 21.9625 3.87761 22.0209C3.77133 22.0792 0.126544 22.5096 0.126544 22.0209C0.126544 21.5322 -0.136031 12.2754 0.0952848 12.0857C0.985965 11.8558 1.89137 11.7118 2.8023 11.6554V11.6554Z" fill="black"/>
<path d="M1.29558 13.2383C1.80103 13.1058 2.31583 13.0277 2.83351 13.0049C2.83351 13.0049 2.91478 21.0289 2.83351 21.0289C2.75224 21.0289 1.35184 21.2696 1.29558 21.0289C1.23931 20.7882 1.22055 13.3915 1.29558 13.2383Z" fill="#8463B3"/>
<path d="M4.0838 10.8165C4.31041 10.7098 4.56364 10.7098 4.79025 10.8165C4.79025 10.9113 4.84026 14.8868 4.79025 14.8868C4.74024 14.8868 4.11506 15.04 4.09005 14.8868C4.06504 14.7336 4.00253 10.8967 4.0838 10.8165Z" fill="#8463B3"/>
<path d="M6.3718 1.17308C6.48434 1.08554 7.77845 1.08554 7.82847 1.26791C7.90728 1.85274 7.90728 2.44835 7.82847 3.03318C7.34325 3.06321 6.85702 3.06321 6.3718 3.03318C6.25758 2.42031 6.25758 1.78595 6.3718 1.17308V1.17308Z" fill="#8463B3"/>
<path d="M20.6513 1.33366C21.1902 1.28723 21.732 1.31909 22.2642 1.42849C22.3013 1.96629 22.2845 2.50731 22.2142 3.04058C21.6945 3.10162 21.1709 3.10162 20.6513 3.04058C20.6241 2.47205 20.6241 1.90219 20.6513 1.33366V1.33366Z" fill="#8463B3"/>
<path d="M8.87294 4.66722C8.87294 4.66722 10.6422 4.4265 10.6422 4.57969C10.6466 5.4857 10.7072 6.39015 10.8235 7.28596C10.9298 7.28596 17.3128 7.2276 17.3378 7.07442C17.3628 6.92123 17.4691 4.70369 17.5442 4.61616C18.0611 4.50891 18.5902 4.50891 19.1071 4.61616C19.1071 4.74017 19.0321 6.38144 19.1571 6.41061C19.2821 6.43979 23.6396 6.59298 23.6896 6.71699C23.7397 6.84099 23.5834 13.4353 23.5834 13.4353C23.5834 13.4353 22.6206 12.2171 22.5393 12.3411C22.458 12.4651 22.2267 12.8298 22.333 12.8882C22.7889 13.3266 23.2076 13.8152 23.5834 14.3471C23.6079 14.7526 23.6079 15.1597 23.5834 15.5653C23.1009 15.0372 22.587 14.5497 22.0454 14.1063C21.9954 14.2012 21.8391 14.5951 21.9141 14.6826C21.9892 14.7702 23.5834 16.5063 23.5834 16.6303C23.5834 16.7543 23.5834 17.6953 23.5834 17.6953C23.0735 17.2287 22.5435 16.7929 21.9954 16.3895C21.9204 16.3895 21.7078 17.0315 21.8141 17.0606C22.4347 17.4201 23.0196 17.858 23.5584 18.3664C23.5584 18.5487 23.6084 19.4314 23.6084 19.4314C23.6084 19.4314 21.9266 18.111 21.8516 18.111C21.7766 18.111 21.7203 18.753 21.7203 18.753C22.3771 19.2277 23.0038 19.7567 23.5959 20.3359C23.6118 20.6395 23.6118 20.944 23.5959 21.2477C23.0878 20.8013 22.5482 20.406 21.9829 20.066C21.9079 20.1608 21.7516 20.5547 21.8766 20.6131C22.0017 20.6714 23.052 21.6489 22.9457 21.6781C22.3763 21.7721 21.7996 21.7917 21.2264 21.7364C21.2264 21.6124 21.2264 19.125 21.1202 19.0958C21.0139 19.0666 16.0687 18.9426 14.9184 19.0083C13.7681 19.0739 8.9042 19.373 8.82293 19.5845C8.74165 19.7961 8.9042 21.5905 8.82293 21.5905C7.92564 21.5719 7.03008 21.4915 6.14092 21.3498C6.06589 21.2258 5.82833 7.67257 6.06589 7.58503C6.30346 7.4975 8.9042 7.40267 8.9042 7.31514C8.9042 7.2276 8.89795 4.75476 8.87294 4.66722Z" fill="#8463B3"/>
<path d="M8.48538 9.8317C9.66397 9.59336 10.8647 9.54183 12.0551 9.67852C12.1722 11.0723 12.1994 12.4744 12.1364 13.8729C10.9503 14.0102 9.75691 14.0419 8.56665 13.9677C8.46158 12.5926 8.43444 11.211 8.48538 9.8317V9.8317Z" fill="#1D1D1B"/>
<path d="M9.71055 10.9551C10.1038 10.8329 10.5176 10.8329 10.9109 10.9551C10.9109 11.0499 11.0922 12.538 10.9109 12.6255C10.5029 12.7525 10.0759 12.7725 9.66054 12.6839C9.63808 12.107 9.6548 11.5289 9.71055 10.9551V10.9551Z" fill="#FAB900"/>
<path d="M17.0254 9.56178C18.206 9.32278 19.4089 9.27125 20.6014 9.40859C20.7185 10.8024 20.7457 12.2044 20.6827 13.6029C19.4965 13.7403 18.3032 13.772 17.1129 13.6978C17.0057 12.3229 16.9765 10.9412 17.0254 9.56178V9.56178Z" fill="#1D1D1B"/>
<path d="M18.2506 10.6852C18.6438 10.563 19.0577 10.563 19.4509 10.6852C19.4509 10.78 19.6322 12.2681 19.4509 12.3556C19.043 12.4826 18.6159 12.5026 18.2006 12.414C18.1781 11.8371 18.1948 11.259 18.2506 10.6852V10.6852Z" fill="#FAB900"/>
<path d="M24.9775 10.5612C25.0525 10.4737 26.2279 10.3788 26.2279 10.6196C26.2279 10.8603 26.2279 14.8431 26.0966 14.8431C25.6625 14.871 25.2272 14.8514 24.7962 14.7847C24.765 14.6972 24.8963 10.6269 24.9775 10.5612Z" fill="#8463B3"/>
<path d="M27.7092 13.603C27.8343 13.552 28.8533 13.5155 28.8846 13.6614C28.9158 13.8073 28.547 21.2623 28.4407 21.3206C28.181 21.3533 27.919 21.3533 27.6592 21.3206C27.6592 21.3206 27.628 13.6322 27.7092 13.603Z" fill="#8463B3"/>
<path d="M9.86685 23.1734C11.0573 23.1121 12.2498 23.1438 13.4366 23.2682C13.4366 23.3922 13.4366 24.9095 13.4366 24.9095L9.86685 24.822C9.81457 24.2741 9.81457 23.7212 9.86685 23.1734Z" fill="#8463B3"/>
<path d="M16.3001 23.3266C17.5471 23.1947 18.7994 23.1435 20.0512 23.1734C20.0512 23.2974 20.1575 24.5083 20.0512 24.574C19.9449 24.6396 16.2251 24.6761 16.2251 24.6761C16.2251 24.6761 16.2251 23.3558 16.3001 23.3266Z" fill="#8463B3"/>
</svg>
