<svg width="450" height="228" viewBox="0 0 450 228" fill="none" xmlns="http://www.w3.org/2000/svg">
<path d="M292.5 97.008L267 104.5L314 131.5L382.5 125.008L320 99.008C309.638 94.3513 303.323 93.8448 292.5 97.008Z" fill="#FF4D00"/>
<path d="M157 96.008L182 104.5L135 131.5L67 124.008L129.5 98.008C139.862 93.3513 146.177 92.8448 157 96.008Z" fill="#FF4D00"/>
<path d="M225.5 171.5C220.5 171.5 211.019 148.454 190 124.5L207 35C220.285 -12.5978 228.722 -10.7012 242 35L260.5 124.5C238.845 149.818 230.5 171.501 225.5 171.5Z" fill="white"/>
<path d="M274 139.5C266.519 107.676 267 104.5 267 104.5L450 209C330.478 195.33 281.481 171.324 274 139.5Z" fill="white"/>
<path d="M182 104.5L0.5 208.5C104.23 189.953 160.783 179.174 175.5 139.5L182 104.5Z" fill="white"/>
<path d="M181 165L194 104C210.066 147.71 210.655 176.531 203.5 227.5L181 165Z" fill="#FF4D00"/>
<path d="M269.879 165L256.5 105C240.434 148.71 240.225 176.531 247.379 227.5L269.879 165Z" fill="#FF4D00"/>
<path d="M239 102.5H210.5L212 112.5C222.413 140.952 228.1 140.325 238 112.5L239 102.5Z" fill="#251587"/>
<path d="M239 93.9994H210.5L213 75.9994C222.387 25.8482 227.619 25.5358 237.5 75.9994L239 93.9994Z" fill="#251587"/>
</svg>
