<svg width="500" height="498" viewBox="0 0 500 498" fill="none" xmlns="http://www.w3.org/2000/svg">
<path d="M473.566 38.2026H245.621V451.084H473.566V38.2026Z" fill="#6C4C99"/>
<path d="M249.915 37.5593H26.8857V450.441H249.915V37.5593Z" fill="#8463B3"/>
<path d="M45.4155 496.034C23.1291 489.538 7.15027 473.242 1.48678 451.233C0.0541184 445.666 -0.078211 425.336 0.155739 246.733L0.415516 48.4153L3.1444 40.9379C9.74447 22.853 24.2415 8.66172 42.0879 2.81562L49.4155 0.415283H249.415H449.415L456.743 2.81562C474.604 8.66641 489.141 22.9054 495.662 40.9379L498.366 48.4153L498.913 94.9153C499.214 120.49 499.226 210.715 498.939 295.415L498.416 449.415L495.721 456.796C489.22 474.597 475.624 488.215 457.893 494.686L450.416 497.415L250.916 497.599C63.6035 497.772 51.0494 497.676 45.4159 496.034H45.4155ZM230.415 387.915V367.415L190.915 366.915L151.415 366.415V347.915V329.415H249.915H348.415L348.688 348.154L348.96 366.892L309.188 367.154L269.415 367.415V387.915V408.415H309.915H350.415L350.687 388.686L350.958 368.957L370.687 368.686L390.415 368.415L390.915 328.915L391.415 289.415H409.915H428.415L428.915 328.915L429.415 368.415H449.915H470.415V307.915V247.415L450.915 246.915L431.415 246.415L430.915 226.915L430.415 207.415L410.915 206.915L391.415 206.415L390.915 186.915L390.415 167.415L370.915 166.915L351.415 166.415L351.143 147.686L350.872 128.958L370.643 128.686L390.415 128.415V107.915V87.4153H369.915H349.415L349.145 107.144L348.873 126.873L329.145 127.144L309.415 127.415L309.144 147.173L308.873 166.931L250.144 166.673L191.415 166.415L190.915 146.915L190.415 127.415L170.915 126.915L151.415 126.415L150.915 106.915L150.415 87.4153H129.916H109.416V107.915V128.415L128.916 128.915L148.415 129.415V147.915V166.415L128.916 166.915L109.416 167.415L108.916 186.915L108.416 206.415L88.9155 206.915L69.4155 207.415L68.9155 226.915L68.4155 246.415L48.9155 246.915L29.4155 247.415V307.915V368.415H49.9155H70.4155L70.9155 328.915L71.4155 289.415H89.9155H108.416L108.916 328.915L109.416 368.415L128.916 368.915L148.415 369.415L148.673 387.915C148.814 398.09 149.14 406.983 149.396 407.677C149.762 408.669 158.445 408.882 190.138 408.677L230.415 408.415V387.915ZM151.368 245.653C151.092 244.934 150.99 236.486 151.141 226.88L151.415 209.415H169.915H188.415V227.915V246.415L170.143 246.688C155.82 246.902 151.762 246.678 151.368 245.653V245.653ZM311.36 245.63C311.088 244.923 310.99 236.486 311.141 226.88L311.415 209.415H329.915H348.415L348.688 228.165L348.96 246.915H330.406C316.215 246.915 311.737 246.613 311.36 245.63V245.63Z" fill="#1F2429"/>
</svg>
